<?xml version="1.0" standalone="no"?>
<!DOCTYPE svg PUBLIC "-//W3C//DTD SVG 20010904//EN"
 "http://www.w3.org/TR/2001/REC-SVG-20010904/DTD/svg10.dtd">
<svg version="1.0" xmlns="http://www.w3.org/2000/svg"
 width="1024.000000pt" height="1024.000000pt" viewBox="0 0 1024.000000 1024.000000"
 preserveAspectRatio="xMidYMid meet">

<g transform="translate(0.000000,1024.000000) scale(0.100000,-0.100000)"
fill="#000000" stroke="none">
<path d="M5461 8084 c-166 -30 -454 -103 -621 -156 -906 -292 -1629 -850
-2073 -1598 -139 -233 -214 -402 -296 -667 -90 -294 -130 -533 -138 -838 -14
-523 83 -970 302 -1405 92 -180 153 -278 285 -456 183 -244 463 -503 722 -666
97 -62 123 -68 157 -40 42 34 37 67 -29 202 -114 231 -176 407 -223 640 -41
201 -50 312 -44 549 6 236 18 328 72 542 71 280 154 480 306 734 237 397 486
669 1109 1210 385 336 577 573 711 884 110 255 148 595 99 870 -42 234 -61
245 -339 195z m-810 -830 c23 -22 29 -36 29 -68 -1 -50 -6 -57 -95 -127 -129
-103 -308 -268 -465 -430 -133 -135 -160 -159 -186 -159 -37 0 -69 22 -89 60
-21 40 -19 79 6 120 54 89 596 596 674 631 35 15 95 3 126 -27z"/>
<path d="M6273 8068 c-21 -27 -21 -50 -1 -165 32 -179 31 -509 0 -688 -46
-256 -154 -526 -299 -745 -149 -225 -301 -388 -658 -709 -126 -113 -291 -263
-365 -333 -545 -508 -830 -1016 -922 -1643 -16 -113 -16 -471 1 -580 34 -219
113 -479 201 -660 102 -207 276 -449 368 -510 49 -32 134 -44 362 -52 611 -19
1209 202 1725 637 195 165 450 455 597 680 76 117 95 151 192 345 154 310 251
629 302 995 25 177 25 653 1 830 -60 430 -190 852 -377 1220 -240 470 -565
916 -933 1278 -102 100 -118 112 -149 112 -20 0 -40 -6 -45 -12z m-213 -2753
c66 -34 66 -84 -3 -251 -30 -71 -122 -302 -205 -514 -325 -829 -623 -1576
-657 -1647 -41 -87 -119 -107 -178 -45 -48 51 -46 64 41 285 44 111 160 402
257 647 356 898 568 1426 586 1462 36 72 96 95 159 63z"/>
</g>
</svg>
