<?xml version="1.0" standalone="no"?>
<!DOCTYPE svg PUBLIC "-//W3C//DTD SVG 20010904//EN"
 "http://www.w3.org/TR/2001/REC-SVG-20010904/DTD/svg10.dtd">
<svg version="1.0" xmlns="http://www.w3.org/2000/svg"
 width="1024.000000pt" height="1024.000000pt" viewBox="0 0 1024.000000 1024.000000"
 preserveAspectRatio="xMidYMid meet">
<metadata>
Created by potrace 1.16, written by Peter Selinger 2001-2019
</metadata>
<g transform="translate(0.000000,1024.000000) scale(0.100000,-0.100000)"
fill="#000000" stroke="none">
<path d="M0 5120 l0 -5120 5120 0 5120 0 0 5120 0 5120 -5120 0 -5120 0 0
-5120z m5725 2968 c37 -29 51 -65 75 -199 49 -275 11 -615 -99 -870 -134 -311
-326 -548 -711 -884 -375 -326 -631 -572 -781 -750 -182 -217 -364 -495 -467
-715 -91 -193 -178 -478 -218 -710 -21 -128 -30 -494 -15 -631 35 -306 117
-577 261 -869 66 -135 71 -168 29 -202 -34 -28 -60 -22 -157 40 -259 163 -539
422 -722 666 -132 178 -193 276 -285 456 -219 435 -316 882 -302 1405 8 305
48 544 138 838 82 265 157 434 296 667 444 748 1167 1306 2073 1598 260 83
684 179 806 181 38 1 58 -4 79 -21z m742 -120 c225 -221 448 -491 630 -763
376 -559 594 -1116 680 -1735 24 -177 24 -653 -1 -830 -51 -366 -148 -685
-302 -995 -97 -194 -116 -228 -192 -345 -147 -225 -402 -515 -597 -680 -516
-435 -1114 -656 -1725 -637 -228 8 -313 20 -362 52 -92 61 -266 303 -368 510
-88 181 -167 441 -201 660 -17 109 -17 467 -1 580 64 437 225 820 494 1177
164 216 325 379 793 799 357 321 509 484 658 709 145 219 253 489 299 745 31
179 32 509 0 688 -26 149 -19 177 46 177 31 0 47 -12 149 -112z"/>
<path d="M4525 7281 c-78 -35 -620 -542 -674 -631 -25 -41 -27 -80 -6 -120 20
-38 52 -60 89 -60 26 0 53 24 186 159 157 162 336 327 465 430 89 70 94 77 95
127 0 32 -6 46 -29 68 -31 30 -91 42 -126 27z"/>
<path d="M5946 5309 c-15 -11 -35 -37 -45 -57 -18 -36 -230 -564 -586 -1462
-97 -245 -213 -536 -257 -647 -87 -221 -89 -234 -41 -285 59 -62 137 -42 178
45 34 71 332 818 657 1647 83 212 175 443 205 514 69 167 69 217 3 251 -40 21
-83 19 -114 -6z"/>
</g>
</svg>
